<svg xmlns="http://www.w3.org/2000/svg" xmlns:xlink="http://www.w3.org/1999/xlink" width="500" zoomAndPan="magnify" viewBox="0 0 375 374.999991" height="500" preserveAspectRatio="xMidYMid meet" version="1.0"><defs><g/></defs><g fill="#000000" fill-opacity="1"><g transform="translate(3.658017, 144.117163)"><g><path d="M 12.703125 26.441406 C 13.367188 26.441406 13.664062 25.703125 13.957031 24.960938 C 14.03125 24.742188 14.179688 24.445312 14.253906 24.296875 C 16.246094 20.605469 17.503906 16.394531 18.683594 12.40625 C 19.421875 10.117188 20.089844 7.753906 20.976562 5.464844 C 29.320312 -17.207031 38.625 -40.914062 50.074219 -69.203125 C 50.8125 -71.046875 52.140625 -71.417969 53.988281 -71.492188 C 54.949219 -71.492188 55.90625 -71.492188 56.941406 -71.492188 C 63.070312 -71.492188 69.128906 -71.195312 74.960938 -70.53125 C 83.53125 -69.644531 92.390625 -68.683594 101.328125 -65.953125 C 101.550781 -65.878906 101.84375 -65.878906 102.066406 -65.804688 C 103.175781 -65.582031 104.800781 -65.289062 104.945312 -63.292969 C 104.945312 -62.628906 105.09375 -61.890625 105.464844 -61.59375 C 105.613281 -61.371094 105.832031 -61.300781 106.277344 -61.300781 C 107.308594 -61.300781 107.828125 -62.257812 107.902344 -63.144531 C 107.976562 -65.878906 106.128906 -67.058594 103.25 -68.019531 C 94.535156 -70.972656 85.894531 -71.933594 77.472656 -72.894531 L 75.035156 -73.117188 C 68.832031 -73.855469 62.628906 -73.929688 56.644531 -74.003906 L 53.175781 -74.003906 L 52.804688 -74.445312 C 52.804688 -74.667969 52.511719 -76.292969 52.4375 -76.511719 C 52.214844 -77.105469 51.625 -78.0625 51.035156 -78.359375 L 50.664062 -78.507812 C 49.851562 -78.507812 49.410156 -77.398438 49.113281 -76.660156 L 48.964844 -76.292969 C 48.375 -75.109375 47.710938 -74.003906 46.160156 -73.855469 C 41.0625 -73.410156 36.484375 -73.042969 31.980469 -72.304688 C 22.15625 -70.828125 14.105469 -69.277344 6.648438 -66.320312 C 4.726562 -65.582031 3.765625 -64.695312 3.546875 -63.664062 C 3.398438 -62.554688 3.914062 -61.226562 5.316406 -59.15625 C 13.738281 -46.972656 18.390625 -35.449219 19.644531 -24.003906 C 20.53125 -15.878906 21.566406 -6.648438 18.316406 1.253906 C 15.4375 8.199219 12.703125 15.066406 11.003906 22.378906 L 10.855469 22.894531 C 10.414062 24.296875 10.265625 25.332031 11.667969 26.070312 C 12.039062 26.292969 12.40625 26.441406 12.703125 26.441406 Z M 46.527344 -71.417969 L 46.308594 -70.898438 C 39.957031 -55.539062 33.898438 -40.25 28.136719 -25.480469 L 23.117188 -12.851562 L 22.597656 -13.070312 C 22.230469 -15.289062 21.933594 -17.429688 21.640625 -19.644531 C 21.269531 -22.597656 20.902344 -25.628906 20.234375 -28.730469 C 18.167969 -38.550781 14.253906 -47.929688 8.199219 -57.457031 C 6.425781 -60.117188 5.539062 -61.667969 5.761719 -62.777344 C 6.054688 -63.808594 7.3125 -64.253906 9.96875 -64.992188 C 21.714844 -68.242188 31.535156 -70.085938 40.914062 -70.679688 C 41.875 -70.753906 42.835938 -70.898438 43.941406 -71.046875 Z M 46.527344 -71.417969 "/></g></g></g><g fill="#000000" fill-opacity="1"><g transform="translate(39.551179, 144.117163)"><g><path d="M 45.125 -11.226562 C 45.050781 -11.375 44.976562 -11.449219 44.828125 -11.449219 C 44.386719 -11.449219 43.722656 -10.78125 43.5 -10.414062 C 42.761719 -9.378906 42.023438 -8.34375 41.359375 -7.238281 C 40.398438 -5.6875 39.363281 -4.0625 38.109375 -2.585938 C 35.894531 -0.148438 33.382812 1.992188 30.574219 3.765625 C 28.949219 4.800781 26.882812 5.910156 24.222656 6.128906 C 24.003906 6.128906 23.707031 6.203125 23.484375 6.203125 C 22.304688 6.203125 21.417969 5.910156 20.902344 5.316406 C 20.234375 4.652344 20.015625 3.617188 20.164062 2.214844 C 20.382812 -0.222656 21.269531 -2.4375 22.007812 -4.578125 L 22.453125 -5.613281 C 23.410156 -8.273438 24.445312 -11.152344 25.332031 -14.03125 C 25.921875 -15.878906 25.554688 -17.132812 24.296875 -18.019531 C 23.855469 -18.390625 23.410156 -18.539062 22.96875 -18.539062 C 22.082031 -18.539062 21.34375 -18.019531 20.679688 -17.652344 C 17.578125 -15.582031 14.917969 -13 12.332031 -10.488281 L 12.113281 -10.265625 C 11.226562 -9.453125 10.414062 -8.566406 9.601562 -7.679688 C 8.9375 -6.941406 8.273438 -6.203125 7.53125 -5.464844 C 7.164062 -5.097656 6.867188 -4.726562 6.5 -4.285156 C 5.6875 -3.398438 4.875 -2.363281 3.765625 -1.847656 C 3.324219 -1.699219 3.027344 -1.550781 2.804688 -1.550781 C 2.4375 -1.550781 2.289062 -1.699219 2.140625 -1.847656 C 1.921875 -2.066406 1.847656 -2.511719 1.992188 -3.175781 C 2.660156 -6.722656 4.355469 -10.042969 5.539062 -13.292969 C 9.085938 -23.117188 27.03125 -55.613281 33.234375 -63.664062 C 33.53125 -64.03125 34.859375 -65.878906 35.597656 -67.578125 C 36.261719 -69.054688 36.484375 -70.308594 35.15625 -70.457031 C 33.085938 -70.605469 31.019531 -66.910156 30.058594 -65.65625 C 28.359375 -63.292969 26.734375 -60.78125 25.332031 -58.195312 C 22.453125 -53.101562 5.980469 -24.742188 3.765625 -19.277344 C 1.625 -14.105469 -0.664062 -8.789062 -0.886719 -2.734375 C -0.960938 -1.402344 -1.035156 -0.148438 0.371094 0.8125 C 0.886719 1.109375 1.328125 1.253906 1.699219 1.253906 C 2.585938 1.253906 3.324219 0.664062 3.914062 0.0742188 C 5.835938 -1.773438 7.679688 -3.691406 9.601562 -5.613281 L 11.152344 -7.164062 C 11.742188 -7.753906 12.332031 -8.417969 12.925781 -9.085938 C 13.957031 -10.117188 14.992188 -11.300781 16.101562 -12.261719 L 16.320312 -12.480469 C 17.871094 -13.882812 20.164062 -15.804688 21.640625 -15.804688 C 21.933594 -15.804688 22.230469 -15.730469 22.453125 -15.507812 C 23.191406 -14.917969 22.597656 -13.738281 22.378906 -13.21875 L 21.785156 -12.039062 C 19.867188 -8.199219 17.945312 -4.285156 17.871094 0.371094 C 17.800781 2.734375 17.871094 4.726562 19.792969 6.351562 C 20.753906 7.089844 21.714844 7.460938 22.894531 7.460938 C 23.929688 7.460938 24.960938 7.164062 25.773438 6.867188 C 31.832031 4.726562 37.445312 0.371094 42.390625 -5.980469 C 42.539062 -6.203125 42.761719 -6.425781 42.984375 -6.722656 C 44.015625 -7.828125 45.863281 -9.898438 45.125 -11.226562 Z M 45.125 -11.226562 "/></g></g></g><g fill="#000000" fill-opacity="1"><g transform="translate(83.2729, 144.117163)"><g><path d="M 37.960938 -14.402344 C 37.664062 -14.402344 37.222656 -14.03125 36.925781 -13.8125 L 36.707031 -13.664062 C 36.039062 -13.292969 35.523438 -12.777344 34.933594 -12.332031 C 34.636719 -12.039062 34.34375 -11.816406 33.972656 -11.59375 C 33.308594 -11.078125 32.71875 -10.5625 32.054688 -10.042969 C 31.167969 -9.304688 30.28125 -8.566406 29.320312 -7.828125 C 26.441406 -5.761719 23.339844 -3.472656 20.164062 -1.328125 C 19.71875 -1.035156 18.167969 -0.222656 17.132812 -0.222656 C 16.988281 -0.222656 16.839844 -0.222656 16.691406 -0.296875 C 16.46875 -0.371094 16.320312 -0.441406 16.246094 -0.664062 C 16.101562 -0.886719 16.101562 -1.253906 16.246094 -1.773438 L 16.691406 -2.804688 C 17.058594 -3.988281 17.503906 -5.167969 18.019531 -6.277344 L 19.351562 -9.011719 C 21.046875 -12.480469 22.746094 -16.027344 24.371094 -19.570312 C 24.816406 -20.382812 25.035156 -21.046875 24.148438 -21.714844 C 23.855469 -22.007812 23.558594 -22.15625 23.191406 -22.15625 C 22.746094 -22.15625 22.304688 -21.933594 21.859375 -21.714844 C 21.269531 -21.492188 20.753906 -21.121094 20.308594 -20.679688 L 20.089844 -20.457031 C 19.496094 -19.867188 18.90625 -19.351562 18.09375 -19.351562 C 17.355469 -19.351562 16.542969 -19.941406 15.582031 -21.195312 C 14.992188 -22.007812 13.738281 -22.007812 12.480469 -22.082031 L 12.1875 -22.082031 C 9.230469 -22.082031 6.867188 -20.902344 4.652344 -18.539062 C 1.625 -15.140625 -0.441406 -11.003906 -1.625 -6.351562 L -1.773438 -5.835938 C -2.214844 -3.988281 -2.804688 -1.921875 -0.664062 -0.441406 C -0.148438 -0.0742188 0.371094 0.148438 0.886719 0.148438 C 1.992188 0.148438 2.953125 -0.738281 3.839844 -1.476562 L 4.429688 -1.992188 C 7.3125 -4.285156 9.675781 -7.089844 12.039062 -9.824219 C 13.070312 -11.078125 14.105469 -12.332031 15.214844 -13.515625 C 15.4375 -13.8125 15.730469 -14.03125 15.953125 -14.328125 L 16.46875 -14.84375 L 16.617188 -14.625 C 17.28125 -13.957031 17.578125 -13.882812 17.726562 -13.882812 C 18.019531 -13.882812 18.019531 -14.550781 18.019531 -14.992188 L 18.019531 -15.214844 C 18.09375 -16.765625 18.90625 -17.945312 19.644531 -18.757812 C 19.644531 -18.757812 21.121094 -20.382812 22.082031 -20.382812 C 22.230469 -20.382812 22.378906 -20.308594 22.453125 -20.308594 C 22.671875 -20.164062 22.820312 -20.015625 22.894531 -19.792969 C 23.265625 -18.90625 22.378906 -17.429688 21.492188 -16.175781 C 21.34375 -15.953125 21.269531 -15.730469 21.195312 -15.65625 C 20.828125 -14.917969 18.980469 -11.519531 18.980469 -11.519531 C 17.578125 -8.9375 16.175781 -6.054688 15.289062 -2.878906 C 15.214844 -2.660156 15.140625 -2.4375 15.066406 -2.214844 C 14.625 -1.109375 14.328125 -0.0742188 15.65625 1.035156 C 16.175781 1.476562 16.691406 1.699219 17.207031 1.699219 C 17.871094 1.699219 18.464844 1.328125 19.054688 1.035156 L 19.496094 0.738281 C 26.808594 -3.25 33.011719 -7.976562 38.035156 -13.292969 C 38.332031 -13.589844 38.476562 -13.957031 38.402344 -14.179688 C 38.332031 -14.328125 38.183594 -14.328125 37.960938 -14.402344 Z M 16.320312 -17.207031 C 14.769531 -15.507812 13.292969 -13.664062 11.890625 -11.890625 C 8.863281 -8.199219 5.6875 -4.285156 1.402344 -1.699219 C 1.183594 -1.550781 0.960938 -1.476562 0.738281 -1.476562 C 0.515625 -1.476562 0.296875 -1.550781 0.0742188 -1.699219 C -0.589844 -2.363281 -0.441406 -3.988281 -0.371094 -4.503906 C -0.0742188 -5.613281 0.515625 -6.574219 1.035156 -7.460938 C 1.253906 -7.902344 1.476562 -8.273438 1.699219 -8.640625 C 3.691406 -12.40625 6.128906 -16.617188 10.488281 -19.203125 C 11.375 -19.71875 12.480469 -20.089844 13.664062 -20.308594 C 13.8125 -20.382812 13.882812 -20.382812 14.03125 -20.382812 C 14.84375 -20.382812 15.730469 -19.867188 16.320312 -19.128906 C 16.839844 -18.390625 16.839844 -17.726562 16.320312 -17.207031 Z M 16.320312 -17.207031 "/></g></g></g><g fill="#000000" fill-opacity="1"><g transform="translate(119.239927, 144.117163)"><g><path d="M 25.703125 -11.667969 C 24.816406 -12.40625 18.464844 -6.425781 17.503906 -5.761719 C 14.625 -3.617188 11.375 -1.773438 7.605469 -0.886719 C 5.835938 -0.441406 3.472656 0.296875 1.699219 -1.476562 C 0 -3.175781 1.402344 -4.875 1.992188 -6.351562 C 4.285156 -11.890625 7.386719 -16.839844 10.5625 -21.785156 C 10.929688 -22.527344 11.890625 -23.339844 10.5625 -24.371094 C 9.304688 -25.40625 8.640625 -24.371094 8.050781 -23.78125 C 3.546875 -18.832031 0.296875 -13 -1.550781 -6.277344 C -2.066406 -4.429688 -2.140625 -2.140625 0.0742188 -0.222656 C 2.214844 1.699219 4.355469 1.328125 6.351562 0.8125 C 11.078125 -0.371094 15.289062 -2.585938 18.980469 -5.167969 C 20.828125 -6.5 22.597656 -7.902344 24.296875 -9.378906 C 24.742188 -9.75 25.921875 -10.339844 25.921875 -11.078125 C 25.921875 -11.375 25.847656 -11.59375 25.703125 -11.667969 Z M 13.738281 -27.917969 C 15.363281 -28.066406 16.46875 -28.65625 16.394531 -30.28125 C 15.953125 -31.832031 14.992188 -32.347656 13.8125 -32.199219 C 12.113281 -32.125 11.152344 -31.386719 11.59375 -29.46875 C 11.964844 -28.210938 12.703125 -27.769531 13.738281 -27.917969 Z M 13.738281 -27.917969 "/></g></g></g><g fill="#000000" fill-opacity="1"><g transform="translate(143.611831, 144.117163)"><g><path d="M 25.035156 -13 C 24.960938 -13.070312 24.742188 -13.21875 24.148438 -13.21875 C 23.042969 -13.21875 21.566406 -12.777344 20.976562 -12.628906 C 17.578125 -11.59375 13.515625 -10.414062 9.75 -8.640625 C 9.15625 -8.34375 8.640625 -8.199219 8.125 -8.199219 C 6.648438 -8.199219 5.835938 -9.601562 4.652344 -11.449219 C 4.136719 -12.332031 3.546875 -13.21875 2.878906 -13.957031 C 1.699219 -15.289062 1.625 -16.542969 2.511719 -17.503906 C 5.390625 -20.605469 9.230469 -22.453125 13.957031 -22.894531 L 14.179688 -22.96875 C 14.328125 -22.96875 14.476562 -22.96875 14.695312 -22.96875 C 15.214844 -22.96875 15.65625 -22.746094 15.953125 -22.304688 C 16.394531 -21.566406 16.101562 -20.976562 15.804688 -20.457031 C 15.289062 -19.421875 14.695312 -18.390625 14.179688 -17.28125 C 13.8125 -16.691406 13.664062 -16.175781 14.253906 -15.730469 C 14.476562 -15.582031 14.695312 -15.507812 14.917969 -15.507812 C 15.289062 -15.507812 15.582031 -15.730469 15.878906 -15.953125 C 17.355469 -16.988281 18.167969 -18.242188 18.539062 -19.792969 C 18.90625 -21.121094 18.683594 -22.304688 17.945312 -23.191406 C 17.28125 -23.929688 16.246094 -24.296875 14.917969 -24.296875 L 14.550781 -24.296875 C 8.9375 -24.003906 4.136719 -21.859375 0.371094 -18.09375 C -0.738281 -16.914062 -0.8125 -15.4375 0.296875 -13.664062 L 0.886719 -12.777344 C 1.402344 -11.816406 1.992188 -10.855469 2.660156 -9.898438 C 4.503906 -7.3125 4.285156 -5.761719 1.992188 -4.578125 C -1.625 -2.660156 -5.316406 -0.441406 -7.902344 2.804688 C -9.898438 5.390625 -9.898438 8.417969 -7.976562 10.117188 C -7.238281 10.707031 -6.277344 11.078125 -5.316406 11.078125 C -3.839844 11.078125 -2.289062 10.414062 -0.886719 9.15625 C 2.804688 5.980469 4.949219 2.585938 5.613281 -1.109375 C 6.351562 -5.167969 9.085938 -6.792969 12.039062 -8.273438 C 13.957031 -9.15625 16.101562 -10.042969 18.757812 -10.855469 C 20.089844 -11.300781 21.492188 -11.667969 22.820312 -11.964844 C 22.96875 -12.039062 23.191406 -12.039062 23.410156 -12.113281 C 24.003906 -12.1875 25.257812 -12.332031 25.183594 -12.703125 Z M -3.25 9.085938 C -3.691406 9.304688 -4.355469 9.527344 -5.167969 9.527344 C -5.835938 9.527344 -6.351562 9.304688 -6.722656 8.9375 C -7.015625 8.566406 -7.164062 8.050781 -7.164062 7.386719 C -6.941406 5.390625 -4.800781 3.472656 -3.175781 2.140625 L -2.660156 1.699219 C -1.773438 0.8125 -0.738281 0.0742188 0.441406 -0.8125 C 0.664062 -0.886719 0.960938 -1.109375 1.402344 -1.253906 C 2.066406 -1.625 3.398438 -2.289062 3.472656 -2.660156 L 3.988281 -2.511719 C 3.027344 3.25 0.738281 6.941406 -3.25 9.085938 Z M -3.25 9.085938 "/></g></g></g><g fill="#000000" fill-opacity="1"><g transform="translate(166.728213, 144.117163)"><g><path d="M 25.183594 -10.855469 C 24.890625 -10.636719 24.59375 -10.339844 24.296875 -10.042969 C 24.078125 -9.898438 23.929688 -9.675781 23.707031 -9.527344 C 22.527344 -8.492188 21.417969 -7.679688 20.234375 -6.867188 C 17.652344 -5.097656 15.066406 -3.914062 12.480469 -3.175781 C 10.78125 -2.660156 9.378906 -2.363281 7.753906 -2.363281 C 6.792969 -2.363281 5.910156 -2.4375 4.949219 -2.734375 C 3.765625 -3.027344 2.953125 -3.617188 2.4375 -4.355469 C 1.992188 -4.949219 1.847656 -5.613281 1.992188 -6.277344 L 2.140625 -6.792969 C 2.585938 -9.085938 3.101562 -11.519531 6.425781 -12.039062 C 11.003906 -12.703125 14.105469 -14.179688 16.175781 -16.691406 C 17.058594 -17.800781 17.726562 -18.832031 16.617188 -20.382812 C 15.878906 -21.417969 14.84375 -21.933594 13.664062 -21.933594 C 13.292969 -21.933594 12.925781 -21.933594 12.480469 -21.785156 C 5.167969 -19.867188 0.738281 -15.4375 -0.589844 -8.789062 C -1.035156 -6.792969 -0.589844 -4.949219 0.664062 -3.546875 C 1.992188 -2.140625 3.988281 -1.328125 6.425781 -1.253906 L 6.792969 -1.253906 C 14.402344 -1.253906 19.792969 -5.464844 24.960938 -9.527344 L 25.480469 -9.898438 C 25.847656 -10.191406 26.515625 -10.707031 26.367188 -11.226562 C 25.996094 -11.226562 25.554688 -11.078125 25.183594 -10.855469 Z M 7.238281 -14.625 C 9.453125 -17.28125 11.816406 -18.464844 14.769531 -19.351562 L 15.4375 -19.570312 L 15.066406 -18.980469 C 13.292969 -16.101562 11.003906 -15.066406 7.53125 -14.253906 L 6.792969 -14.105469 Z M 7.238281 -14.625 "/></g></g></g><g fill="#000000" fill-opacity="1"><g transform="translate(191.918162, 144.117163)"><g/></g></g><g fill="#000000" fill-opacity="1"><g transform="translate(11.890634, 246.820906)"><g/></g></g><g fill="#000000" fill-opacity="1"><g transform="translate(34.046908, 246.820906)"><g/></g></g><g fill="#000000" fill-opacity="1"><g transform="translate(56.203182, 246.820906)"><g/></g></g><g fill="#000000" fill-opacity="1"><g transform="translate(78.359456, 246.820906)"><g/></g></g><g fill="#000000" fill-opacity="1"><g transform="translate(100.51977, 246.820906)"><g><path d="M 31.167969 16.394531 C 31.90625 16.394531 32.570312 16.394531 33.308594 16.320312 C 40.695312 15.804688 47.339844 13.589844 53.175781 9.75 C 56.792969 7.386719 60.191406 4.285156 63.441406 0.441406 C 64.695312 -1.035156 65.878906 -2.4375 67.058594 -3.988281 L 67.578125 -4.652344 C 68.609375 -5.910156 69.644531 -7.238281 70.457031 -8.640625 L 70.605469 -8.863281 C 70.828125 -9.304688 71.195312 -9.96875 71.121094 -10.339844 C 70.972656 -10.78125 70.753906 -10.78125 70.753906 -10.78125 C 70.605469 -10.78125 70.457031 -10.707031 70.308594 -10.5625 C 70.015625 -10.339844 69.792969 -10.042969 69.570312 -9.675781 L 69.203125 -9.230469 C 68.464844 -8.417969 67.796875 -7.53125 67.132812 -6.648438 C 64.105469 -2.363281 61.078125 1.035156 57.976562 3.765625 C 52.214844 8.714844 44.164062 14.328125 32.570312 14.328125 C 31.386719 14.328125 30.132812 14.328125 28.878906 14.179688 C 21.417969 13.441406 14.550781 8.789062 11.003906 1.921875 C 5.910156 -7.753906 7.089844 -16.246094 8.9375 -23.339844 C 11.890625 -34.710938 17.945312 -44.976562 27.917969 -55.539062 C 32.421875 -60.265625 37 -64.621094 43.722656 -66.542969 C 44.683594 -66.839844 45.640625 -66.910156 46.601562 -66.910156 C 48.742188 -66.910156 50.8125 -66.171875 52.511719 -64.769531 C 54.429688 -63.21875 55.832031 -60.78125 56.425781 -57.902344 C 57.3125 -53.617188 56.203125 -50.292969 55.09375 -47.785156 C 52.140625 -41.285156 47.710938 -35.96875 41.433594 -31.3125 C 41.285156 -31.167969 41.0625 -31.019531 40.839844 -30.871094 C 40.101562 -30.429688 39.289062 -29.910156 39.363281 -29.246094 C 39.363281 -28.878906 39.660156 -28.433594 40.175781 -27.917969 C 40.621094 -27.472656 41.0625 -27.179688 41.507812 -27.179688 C 42.246094 -27.179688 42.910156 -27.917969 43.425781 -28.507812 C 43.574219 -28.730469 43.722656 -28.878906 43.871094 -29.023438 C 47.636719 -32.792969 51.035156 -37.222656 53.914062 -42.023438 C 56.941406 -47.265625 58.195312 -52.140625 57.753906 -57.457031 C 57.53125 -60.339844 56.203125 -63.070312 53.988281 -65.140625 C 51.699219 -67.28125 48.816406 -68.535156 45.714844 -68.683594 L 45.125 -68.683594 C 41.433594 -68.683594 38.035156 -67.503906 34.34375 -65.140625 C 21.566406 -56.574219 12.261719 -44.535156 6.722656 -29.320312 C 4.0625 -22.15625 3.324219 -15.289062 4.429688 -8.417969 C 5.6875 -0.738281 9.15625 5.910156 14.328125 10.339844 C 18.980469 14.328125 24.816406 16.394531 31.167969 16.394531 Z M 31.167969 16.394531 "/></g></g></g><g fill="#000000" fill-opacity="1"><g transform="translate(170.090481, 246.820906)"><g><path d="M 32.199219 -11.449219 C 31.980469 -11.449219 31.757812 -11.300781 31.460938 -11.226562 C 31.3125 -11.152344 31.09375 -11.078125 30.945312 -11.003906 C 30.5 -10.929688 30.058594 -10.855469 29.617188 -10.855469 C 26.882812 -10.855469 24.003906 -12.40625 21.933594 -14.917969 C 20.089844 -17.207031 18.90625 -18.316406 17.726562 -18.316406 C 16.988281 -18.316406 16.101562 -17.871094 14.695312 -16.839844 C 12.628906 -15.289062 10.707031 -13.664062 8.714844 -11.964844 L 5.613281 -9.378906 C 5.390625 -9.15625 5.167969 -8.9375 4.875 -8.640625 C 4.285156 -8.050781 3.691406 -7.386719 2.734375 -7.164062 L 2.511719 -7.164062 L 2.4375 -7.3125 C 2.066406 -7.753906 3.101562 -10.042969 3.101562 -10.042969 C 3.617188 -11.003906 4.0625 -11.964844 4.503906 -12.925781 C 5.167969 -14.402344 5.761719 -15.953125 6.425781 -17.503906 L 6.941406 -18.90625 C 7.015625 -19.054688 7.164062 -19.277344 7.238281 -19.421875 C 7.460938 -19.941406 7.828125 -20.457031 7.605469 -20.976562 C 7.460938 -21.269531 7.238281 -21.492188 6.867188 -21.714844 C 6.648438 -21.859375 6.425781 -21.933594 6.203125 -21.933594 C 5.613281 -21.933594 5.167969 -21.195312 4.800781 -20.679688 L 4.726562 -20.457031 C 1.773438 -15.65625 -0.589844 -10.265625 -2.585938 -3.988281 L -2.660156 -3.691406 C -2.953125 -2.878906 -3.25 -1.992188 -2.140625 -1.183594 C -1.773438 -0.886719 -1.402344 -0.738281 -1.109375 -0.738281 C -0.589844 -0.738281 -0.296875 -1.183594 0 -1.625 C 0.148438 -1.773438 0.296875 -1.921875 0.441406 -2.066406 L 2.214844 -3.914062 C 6.128906 -7.976562 10.191406 -12.113281 14.84375 -15.4375 C 16.175781 -16.394531 16.914062 -16.914062 17.726562 -16.914062 C 18.757812 -16.914062 19.570312 -16.027344 21.34375 -13.957031 C 23.484375 -11.519531 26.660156 -9.96875 29.46875 -9.96875 C 30.574219 -9.96875 31.609375 -10.191406 32.421875 -10.707031 C 32.71875 -10.855469 32.792969 -11.078125 32.71875 -11.152344 C 32.71875 -11.226562 32.570312 -11.375 32.199219 -11.449219 Z M 32.199219 -11.449219 "/></g></g></g><g fill="#000000" fill-opacity="1"><g transform="translate(201.330837, 246.820906)"><g><path d="M 25.703125 -11.667969 C 24.816406 -12.40625 18.464844 -6.425781 17.503906 -5.761719 C 14.625 -3.617188 11.375 -1.773438 7.605469 -0.886719 C 5.835938 -0.441406 3.472656 0.296875 1.699219 -1.476562 C 0 -3.175781 1.402344 -4.875 1.992188 -6.351562 C 4.285156 -11.890625 7.386719 -16.839844 10.5625 -21.785156 C 10.929688 -22.527344 11.890625 -23.339844 10.5625 -24.371094 C 9.304688 -25.40625 8.640625 -24.371094 8.050781 -23.78125 C 3.546875 -18.832031 0.296875 -13 -1.550781 -6.277344 C -2.066406 -4.429688 -2.140625 -2.140625 0.0742188 -0.222656 C 2.214844 1.699219 4.355469 1.328125 6.351562 0.8125 C 11.078125 -0.371094 15.289062 -2.585938 18.980469 -5.167969 C 20.828125 -6.5 22.597656 -7.902344 24.296875 -9.378906 C 24.742188 -9.75 25.921875 -10.339844 25.921875 -11.078125 C 25.921875 -11.375 25.847656 -11.59375 25.703125 -11.667969 Z M 13.738281 -27.917969 C 15.363281 -28.066406 16.46875 -28.65625 16.394531 -30.28125 C 15.953125 -31.832031 14.992188 -32.347656 13.8125 -32.199219 C 12.113281 -32.125 11.152344 -31.386719 11.59375 -29.46875 C 11.964844 -28.210938 12.703125 -27.769531 13.738281 -27.917969 Z M 13.738281 -27.917969 "/></g></g></g><g fill="#000000" fill-opacity="1"><g transform="translate(225.702741, 246.820906)"><g><path d="M 25.035156 -13 C 24.960938 -13.070312 24.742188 -13.21875 24.148438 -13.21875 C 23.042969 -13.21875 21.566406 -12.777344 20.976562 -12.628906 C 17.578125 -11.59375 13.515625 -10.414062 9.75 -8.640625 C 9.15625 -8.34375 8.640625 -8.199219 8.125 -8.199219 C 6.648438 -8.199219 5.835938 -9.601562 4.652344 -11.449219 C 4.136719 -12.332031 3.546875 -13.21875 2.878906 -13.957031 C 1.699219 -15.289062 1.625 -16.542969 2.511719 -17.503906 C 5.390625 -20.605469 9.230469 -22.453125 13.957031 -22.894531 L 14.179688 -22.96875 C 14.328125 -22.96875 14.476562 -22.96875 14.695312 -22.96875 C 15.214844 -22.96875 15.65625 -22.746094 15.953125 -22.304688 C 16.394531 -21.566406 16.101562 -20.976562 15.804688 -20.457031 C 15.289062 -19.421875 14.695312 -18.390625 14.179688 -17.28125 C 13.8125 -16.691406 13.664062 -16.175781 14.253906 -15.730469 C 14.476562 -15.582031 14.695312 -15.507812 14.917969 -15.507812 C 15.289062 -15.507812 15.582031 -15.730469 15.878906 -15.953125 C 17.355469 -16.988281 18.167969 -18.242188 18.539062 -19.792969 C 18.90625 -21.121094 18.683594 -22.304688 17.945312 -23.191406 C 17.28125 -23.929688 16.246094 -24.296875 14.917969 -24.296875 L 14.550781 -24.296875 C 8.9375 -24.003906 4.136719 -21.859375 0.371094 -18.09375 C -0.738281 -16.914062 -0.8125 -15.4375 0.296875 -13.664062 L 0.886719 -12.777344 C 1.402344 -11.816406 1.992188 -10.855469 2.660156 -9.898438 C 4.503906 -7.3125 4.285156 -5.761719 1.992188 -4.578125 C -1.625 -2.660156 -5.316406 -0.441406 -7.902344 2.804688 C -9.898438 5.390625 -9.898438 8.417969 -7.976562 10.117188 C -7.238281 10.707031 -6.277344 11.078125 -5.316406 11.078125 C -3.839844 11.078125 -2.289062 10.414062 -0.886719 9.15625 C 2.804688 5.980469 4.949219 2.585938 5.613281 -1.109375 C 6.351562 -5.167969 9.085938 -6.792969 12.039062 -8.273438 C 13.957031 -9.15625 16.101562 -10.042969 18.757812 -10.855469 C 20.089844 -11.300781 21.492188 -11.667969 22.820312 -11.964844 C 22.96875 -12.039062 23.191406 -12.039062 23.410156 -12.113281 C 24.003906 -12.1875 25.257812 -12.332031 25.183594 -12.703125 Z M -3.25 9.085938 C -3.691406 9.304688 -4.355469 9.527344 -5.167969 9.527344 C -5.835938 9.527344 -6.351562 9.304688 -6.722656 8.9375 C -7.015625 8.566406 -7.164062 8.050781 -7.164062 7.386719 C -6.941406 5.390625 -4.800781 3.472656 -3.175781 2.140625 L -2.660156 1.699219 C -1.773438 0.8125 -0.738281 0.0742188 0.441406 -0.8125 C 0.664062 -0.886719 0.960938 -1.109375 1.402344 -1.253906 C 2.066406 -1.625 3.398438 -2.289062 3.472656 -2.660156 L 3.988281 -2.511719 C 3.027344 3.25 0.738281 6.941406 -3.25 9.085938 Z M -3.25 9.085938 "/></g></g></g><g fill="#000000" fill-opacity="1"><g transform="translate(248.819123, 246.820906)"><g><path d="M 42.539062 -36.261719 C 42.246094 -36.558594 41.652344 -36.558594 41.0625 -36.558594 C 40.914062 -36.632812 40.695312 -36.632812 40.546875 -36.632812 C 33.898438 -37.371094 28.136719 -37.738281 22.820312 -37.738281 L 16.320312 -37.738281 L 16.46875 -38.109375 C 18.316406 -41.949219 20.605469 -45.050781 22.746094 -48.003906 C 23.484375 -48.964844 24.148438 -49.925781 24.890625 -50.960938 C 25.554688 -51.917969 25.921875 -52.585938 24.960938 -53.398438 C 24.667969 -53.691406 24.371094 -53.839844 24.078125 -53.839844 C 23.632812 -53.839844 23.339844 -53.398438 22.96875 -53.027344 C 22.894531 -52.878906 22.820312 -52.730469 22.671875 -52.65625 C 19.054688 -48.671875 16.246094 -44.609375 14.105469 -40.25 C 13.144531 -38.183594 11.519531 -37.738281 9.378906 -37.664062 C 7.238281 -37.664062 5.097656 -37.59375 2.953125 -37.59375 C 0.664062 -37.59375 -1.625 -37.664062 -3.914062 -37.664062 C -6.203125 -37.664062 -8.492188 -37.738281 -10.78125 -37.738281 C -15.066406 -37.738281 -20.679688 -37.664062 -26.21875 -37.148438 L -26.441406 -37.148438 C -26.441406 -37.148438 -27.253906 -37.148438 -27.398438 -37.148438 C -28.066406 -37.148438 -28.210938 -37 -28.136719 -36.484375 C -27.992188 -36.1875 -27.917969 -35.96875 -27.695312 -35.746094 C -27.472656 -35.597656 -27.179688 -35.523438 -26.882812 -35.523438 C -26.515625 -35.523438 -26.144531 -35.597656 -25.773438 -35.671875 C -22.894531 -36.410156 -19.71875 -36.484375 -16.691406 -36.484375 C -15.507812 -36.484375 -14.253906 -36.484375 -13.070312 -36.558594 C -10.265625 -36.707031 -7.164062 -36.707031 -3.398438 -36.707031 C -1.109375 -36.707031 1.183594 -36.707031 3.546875 -36.707031 C 5.761719 -36.707031 8.050781 -36.632812 10.265625 -36.632812 L 10.414062 -36.632812 L 10.488281 -36.484375 C 11.375 -35.15625 11.078125 -34.636719 10.855469 -34.121094 C 10.042969 -32.496094 9.230469 -30.796875 8.417969 -29.097656 C 6.648438 -25.628906 4.875 -22.007812 3.324219 -18.316406 L 2.953125 -17.355469 C -1.773438 -5.980469 -6.574219 5.761719 -7.753906 19.054688 L -7.828125 19.71875 C -7.976562 21.640625 -8.199219 23.707031 -7.53125 25.847656 C -6.867188 27.917969 -5.539062 28.878906 -3.398438 28.878906 L -3.324219 28.878906 C -2.878906 28.878906 -2.363281 28.730469 -2.511719 27.992188 C -2.511719 27.695312 -2.660156 27.472656 -2.804688 27.253906 C -2.953125 27.179688 -3.101562 27.105469 -3.25 27.03125 C -4.210938 26.957031 -4.800781 26.660156 -5.242188 26.21875 C -5.835938 25.554688 -5.835938 24.742188 -5.835938 23.929688 C -5.835938 23.707031 -5.835938 23.558594 -5.835938 23.339844 C -5.910156 18.539062 -5.242188 13.589844 -3.839844 7.902344 C -0.148438 -6.574219 6.5 -19.421875 12.925781 -31.90625 L 14.179688 -34.417969 C 14.84375 -35.671875 15.878906 -35.894531 17.429688 -35.894531 L 17.503906 -35.894531 C 18.757812 -35.894531 20.089844 -35.894531 21.34375 -35.894531 L 25.109375 -35.894531 C 30.058594 -35.894531 35.375 -35.820312 40.839844 -35.082031 L 41.136719 -35.082031 C 41.433594 -35.007812 41.800781 -34.933594 42.097656 -34.933594 C 42.835938 -34.933594 42.910156 -35.230469 42.835938 -35.523438 C 42.835938 -35.820312 42.761719 -36.113281 42.539062 -36.261719 Z M 42.539062 -36.261719 "/></g></g></g><g fill="#000000" fill-opacity="1"><g transform="translate(261.522053, 246.820906)"><g><path d="M 25.703125 -11.667969 C 24.816406 -12.40625 18.464844 -6.425781 17.503906 -5.761719 C 14.625 -3.617188 11.375 -1.773438 7.605469 -0.886719 C 5.835938 -0.441406 3.472656 0.296875 1.699219 -1.476562 C 0 -3.175781 1.402344 -4.875 1.992188 -6.351562 C 4.285156 -11.890625 7.386719 -16.839844 10.5625 -21.785156 C 10.929688 -22.527344 11.890625 -23.339844 10.5625 -24.371094 C 9.304688 -25.40625 8.640625 -24.371094 8.050781 -23.78125 C 3.546875 -18.832031 0.296875 -13 -1.550781 -6.277344 C -2.066406 -4.429688 -2.140625 -2.140625 0.0742188 -0.222656 C 2.214844 1.699219 4.355469 1.328125 6.351562 0.8125 C 11.078125 -0.371094 15.289062 -2.585938 18.980469 -5.167969 C 20.828125 -6.5 22.597656 -7.902344 24.296875 -9.378906 C 24.742188 -9.75 25.921875 -10.339844 25.921875 -11.078125 C 25.921875 -11.375 25.847656 -11.59375 25.703125 -11.667969 Z M 13.738281 -27.917969 C 15.363281 -28.066406 16.46875 -28.65625 16.394531 -30.28125 C 15.953125 -31.832031 14.992188 -32.347656 13.8125 -32.199219 C 12.113281 -32.125 11.152344 -31.386719 11.59375 -29.46875 C 11.964844 -28.210938 12.703125 -27.769531 13.738281 -27.917969 Z M 13.738281 -27.917969 "/></g></g></g><g fill="#000000" fill-opacity="1"><g transform="translate(285.893957, 246.820906)"><g><path d="M 40.621094 -12.332031 C 40.472656 -12.480469 40.398438 -12.480469 40.25 -12.480469 C 39.808594 -12.480469 39.4375 -11.816406 39.214844 -11.375 L 39.144531 -11.152344 C 37.296875 -7.679688 34.417969 -4.875 32.125 -2.585938 C 29.394531 0.148438 26.070312 3.101562 21.492188 4.503906 C 21.121094 4.652344 20.679688 4.800781 20.308594 4.800781 C 19.792969 4.800781 19.351562 4.578125 18.980469 4.210938 C 18.316406 3.546875 18.609375 2.804688 18.832031 2.289062 L 18.980469 1.992188 C 19.277344 1.109375 19.644531 0.222656 20.015625 -0.589844 C 20.679688 -2.140625 21.34375 -3.765625 21.785156 -5.464844 C 22.15625 -6.792969 21.859375 -7.976562 21.121094 -8.863281 C 20.382812 -9.675781 19.351562 -10.117188 18.019531 -10.117188 C 17.800781 -10.117188 17.503906 -10.117188 17.28125 -10.042969 C 15.4375 -9.824219 13.589844 -9.304688 11.59375 -8.417969 C 9.898438 -7.753906 8.273438 -7.089844 6.722656 -6.351562 C 6.203125 -6.054688 5.761719 -5.761719 5.242188 -5.464844 C 4.875 -5.167969 4.503906 -4.875 4.0625 -4.652344 C 3.691406 -4.503906 2.804688 -4.136719 2.140625 -4.136719 C 1.847656 -4.136719 1.625 -4.210938 1.476562 -4.355469 C 1.035156 -4.726562 1.253906 -5.242188 1.328125 -5.390625 L 3.914062 -12.113281 C 3.988281 -12.261719 4.0625 -12.480469 4.210938 -12.703125 C 4.578125 -13.589844 5.316406 -15.140625 4.875 -16.101562 C 4.726562 -16.394531 4.503906 -16.542969 4.210938 -16.765625 C 3.988281 -16.839844 3.839844 -16.839844 3.691406 -16.839844 C 3.324219 -16.839844 3.027344 -16.46875 2.804688 -16.101562 L 2.660156 -15.878906 C 0.589844 -12.703125 -0.960938 -9.085938 -1.773438 -5.023438 L -1.847656 -4.726562 C -2.066406 -3.839844 -2.289062 -3.027344 -1.253906 -2.140625 C -0.738281 -1.699219 -0.296875 -1.476562 0.148438 -1.476562 C 0.664062 -1.476562 1.183594 -1.773438 1.625 -1.992188 L 1.847656 -2.140625 C 2.878906 -2.660156 3.839844 -3.175781 4.800781 -3.765625 C 6.941406 -4.949219 9.230469 -6.203125 11.742188 -7.089844 C 13.664062 -7.753906 15.582031 -8.273438 17.503906 -8.714844 C 17.800781 -8.789062 18.019531 -8.789062 18.167969 -8.789062 C 18.757812 -8.789062 19.203125 -8.640625 19.570312 -8.199219 C 20.234375 -7.53125 19.941406 -6.941406 19.792969 -6.574219 L 19.644531 -6.351562 C 19.421875 -5.6875 19.054688 -5.167969 18.683594 -4.578125 L 18.019531 -3.398438 C 16.988281 -1.699219 15.953125 0.0742188 15.953125 2.363281 C 15.953125 3.617188 16.246094 4.578125 16.914062 5.242188 C 17.578125 5.835938 18.539062 6.203125 19.792969 6.203125 L 19.941406 6.203125 C 21.195312 6.128906 22.082031 5.980469 22.894531 5.464844 C 30.5 1.183594 36.1875 -3.988281 40.25 -10.265625 C 40.324219 -10.414062 40.472656 -10.5625 40.621094 -10.707031 C 40.914062 -11.078125 41.285156 -11.375 41.136719 -11.742188 C 41.136719 -11.964844 40.914062 -12.113281 40.621094 -12.332031 Z M 40.621094 -12.332031 "/></g></g></g><g fill="#000000" fill-opacity="1"><g transform="translate(324.962856, 246.820906)"><g><path d="M 37.960938 -14.402344 C 37.664062 -14.402344 37.222656 -14.03125 36.925781 -13.8125 L 36.707031 -13.664062 C 36.039062 -13.292969 35.523438 -12.777344 34.933594 -12.332031 C 34.636719 -12.039062 34.34375 -11.816406 33.972656 -11.59375 C 33.308594 -11.078125 32.71875 -10.5625 32.054688 -10.042969 C 31.167969 -9.304688 30.28125 -8.566406 29.320312 -7.828125 C 26.441406 -5.761719 23.339844 -3.472656 20.164062 -1.328125 C 19.71875 -1.035156 18.167969 -0.222656 17.132812 -0.222656 C 16.988281 -0.222656 16.839844 -0.222656 16.691406 -0.296875 C 16.46875 -0.371094 16.320312 -0.441406 16.246094 -0.664062 C 16.101562 -0.886719 16.101562 -1.253906 16.246094 -1.773438 L 16.691406 -2.804688 C 17.058594 -3.988281 17.503906 -5.167969 18.019531 -6.277344 L 19.351562 -9.011719 C 21.046875 -12.480469 22.746094 -16.027344 24.371094 -19.570312 C 24.816406 -20.382812 25.035156 -21.046875 24.148438 -21.714844 C 23.855469 -22.007812 23.558594 -22.15625 23.191406 -22.15625 C 22.746094 -22.15625 22.304688 -21.933594 21.859375 -21.714844 C 21.269531 -21.492188 20.753906 -21.121094 20.308594 -20.679688 L 20.089844 -20.457031 C 19.496094 -19.867188 18.90625 -19.351562 18.09375 -19.351562 C 17.355469 -19.351562 16.542969 -19.941406 15.582031 -21.195312 C 14.992188 -22.007812 13.738281 -22.007812 12.480469 -22.082031 L 12.1875 -22.082031 C 9.230469 -22.082031 6.867188 -20.902344 4.652344 -18.539062 C 1.625 -15.140625 -0.441406 -11.003906 -1.625 -6.351562 L -1.773438 -5.835938 C -2.214844 -3.988281 -2.804688 -1.921875 -0.664062 -0.441406 C -0.148438 -0.0742188 0.371094 0.148438 0.886719 0.148438 C 1.992188 0.148438 2.953125 -0.738281 3.839844 -1.476562 L 4.429688 -1.992188 C 7.3125 -4.285156 9.675781 -7.089844 12.039062 -9.824219 C 13.070312 -11.078125 14.105469 -12.332031 15.214844 -13.515625 C 15.4375 -13.8125 15.730469 -14.03125 15.953125 -14.328125 L 16.46875 -14.84375 L 16.617188 -14.625 C 17.28125 -13.957031 17.578125 -13.882812 17.726562 -13.882812 C 18.019531 -13.882812 18.019531 -14.550781 18.019531 -14.992188 L 18.019531 -15.214844 C 18.09375 -16.765625 18.90625 -17.945312 19.644531 -18.757812 C 19.644531 -18.757812 21.121094 -20.382812 22.082031 -20.382812 C 22.230469 -20.382812 22.378906 -20.308594 22.453125 -20.308594 C 22.671875 -20.164062 22.820312 -20.015625 22.894531 -19.792969 C 23.265625 -18.90625 22.378906 -17.429688 21.492188 -16.175781 C 21.34375 -15.953125 21.269531 -15.730469 21.195312 -15.65625 C 20.828125 -14.917969 18.980469 -11.519531 18.980469 -11.519531 C 17.578125 -8.9375 16.175781 -6.054688 15.289062 -2.878906 C 15.214844 -2.660156 15.140625 -2.4375 15.066406 -2.214844 C 14.625 -1.109375 14.328125 -0.0742188 15.65625 1.035156 C 16.175781 1.476562 16.691406 1.699219 17.207031 1.699219 C 17.871094 1.699219 18.464844 1.328125 19.054688 1.035156 L 19.496094 0.738281 C 26.808594 -3.25 33.011719 -7.976562 38.035156 -13.292969 C 38.332031 -13.589844 38.476562 -13.957031 38.402344 -14.179688 C 38.332031 -14.328125 38.183594 -14.328125 37.960938 -14.402344 Z M 16.320312 -17.207031 C 14.769531 -15.507812 13.292969 -13.664062 11.890625 -11.890625 C 8.863281 -8.199219 5.6875 -4.285156 1.402344 -1.699219 C 1.183594 -1.550781 0.960938 -1.476562 0.738281 -1.476562 C 0.515625 -1.476562 0.296875 -1.550781 0.0742188 -1.699219 C -0.589844 -2.363281 -0.441406 -3.988281 -0.371094 -4.503906 C -0.0742188 -5.613281 0.515625 -6.574219 1.035156 -7.460938 C 1.253906 -7.902344 1.476562 -8.273438 1.699219 -8.640625 C 3.691406 -12.40625 6.128906 -16.617188 10.488281 -19.203125 C 11.375 -19.71875 12.480469 -20.089844 13.664062 -20.308594 C 13.8125 -20.382812 13.882812 -20.382812 14.03125 -20.382812 C 14.84375 -20.382812 15.730469 -19.867188 16.320312 -19.128906 C 16.839844 -18.390625 16.839844 -17.726562 16.320312 -17.207031 Z M 16.320312 -17.207031 "/></g></g></g></svg>