<svg xmlns="http://www.w3.org/2000/svg" xmlns:xlink="http://www.w3.org/1999/xlink" width="500" zoomAndPan="magnify" viewBox="0 0 375 374.999991" height="500" preserveAspectRatio="xMidYMid meet" version="1.0"><defs><g/></defs><g fill="#ffffff" fill-opacity="1"><g transform="translate(18.572288, 223.605168)"><g><path d="M 13.695312 17.503906 C 14.1875 17.394531 14.285156 16.800781 14.386719 16.207031 C 14.402344 16.03125 14.464844 15.789062 14.496094 15.667969 C 15.371094 12.609375 15.617188 9.289062 15.84375 6.148438 C 16.019531 4.332031 16.125 2.476562 16.410156 0.636719 C 18.902344 -17.5 21.9375 -36.554688 25.816406 -59.347656 C 26.0625 -60.835938 26.988281 -61.324219 28.339844 -61.679688 C 29.050781 -61.835938 29.761719 -61.992188 30.527344 -62.160156 C 35.0625 -63.152344 39.59375 -63.917969 44.019531 -64.375 C 50.503906 -65.109375 57.21875 -65.839844 64.277344 -65.269531 C 64.453125 -65.25 64.671875 -65.296875 64.847656 -65.28125 C 65.703125 -65.296875 66.953125 -65.339844 67.386719 -63.890625 C 67.496094 -63.398438 67.722656 -62.875 68.046875 -62.714844 C 68.191406 -62.578125 68.367188 -62.558594 68.695312 -62.628906 C 69.460938 -62.796875 69.6875 -63.59375 69.597656 -64.261719 C 69.207031 -66.292969 67.648438 -66.867188 65.363281 -67.113281 C 58.433594 -67.882812 51.882812 -67.1875 45.496094 -66.53125 L 43.65625 -66.300781 C 38.945312 -65.839844 34.339844 -64.886719 29.902344 -63.96875 L 27.332031 -63.40625 L 26.988281 -63.671875 C 26.949219 -63.835938 26.46875 -64.992188 26.378906 -65.144531 C 26.117188 -65.542969 25.523438 -66.160156 25.039062 -66.28125 L 24.742188 -66.332031 C 24.140625 -66.199219 23.992188 -65.308594 23.894531 -64.710938 L 23.84375 -64.414062 C 23.597656 -63.445312 23.289062 -62.515625 22.164062 -62.15625 C 18.464844 -61 15.136719 -59.984375 11.921875 -58.703125 C 4.890625 -56.015625 -0.8125 -53.558594 -5.855469 -50.164062 C -7.15625 -49.304688 -7.722656 -48.492188 -7.71875 -47.691406 C -7.648438 -46.847656 -7.050781 -45.945312 -5.675781 -44.644531 C 2.535156 -36.992188 7.851562 -29.222656 10.640625 -20.953125 C 12.617188 -15.085938 14.878906 -8.421875 13.757812 -2.046875 C 12.753906 3.558594 11.847656 9.085938 11.777344 14.773438 L 11.753906 15.179688 C 11.652344 16.289062 11.710938 17.078125 12.871094 17.398438 C 13.179688 17.503906 13.476562 17.550781 13.695312 17.503906 Z M 22.832031 -60.410156 L 22.753906 -59.992188 C 20.546875 -47.59375 18.550781 -35.296875 16.683594 -23.429688 L 15.019531 -13.265625 L 14.601562 -13.34375 C 13.96875 -14.925781 13.402344 -16.460938 12.824219 -18.054688 C 12.070312 -20.179688 11.304688 -22.363281 10.308594 -24.550781 C 7.183594 -31.484375 2.761719 -37.789062 -3.265625 -43.855469 C -5.011719 -45.535156 -5.917969 -46.539062 -5.933594 -47.394531 C -5.882812 -48.207031 -5.027344 -48.738281 -3.179688 -49.71875 C 4.984375 -54.03125 11.953125 -56.992188 18.796875 -58.953125 C 19.496094 -59.164062 20.183594 -59.429688 20.980469 -59.71875 Z M 22.832031 -60.410156 "/></g></g></g><g fill="#ffffff" fill-opacity="1"><g transform="translate(45.1348, 217.774685)"><g><path d="M 31.570312 -15.636719 C 31.492188 -15.734375 31.425781 -15.777344 31.316406 -15.753906 C 30.988281 -15.683594 30.605469 -15.082031 30.5 -14.773438 C 30.121094 -13.886719 29.746094 -13.003906 29.433594 -12.074219 C 28.972656 -10.769531 28.472656 -9.402344 27.785156 -8.105469 C 26.539062 -5.941406 25.027344 -3.945312 23.238281 -2.179688 C 22.207031 -1.148438 20.855469 0.00390625 18.921875 0.601562 C 18.757812 0.636719 18.554688 0.738281 18.390625 0.777344 C 17.515625 0.96875 16.808594 0.894531 16.332031 0.539062 C 15.730469 0.15625 15.398438 -0.574219 15.28125 -1.636719 C 15.050781 -3.476562 15.34375 -5.257812 15.542969 -6.964844 L 15.703125 -7.800781 C 15.984375 -9.925781 16.28125 -12.222656 16.46875 -14.5 C 16.605469 -15.960938 16.128906 -16.832031 15.054688 -17.285156 C 14.667969 -17.484375 14.316406 -17.523438 13.988281 -17.449219 C 13.332031 -17.304688 12.867188 -16.804688 12.4375 -16.421875 C 10.476562 -14.386719 8.929688 -12.042969 7.425781 -9.765625 L 7.296875 -9.566406 C 6.773438 -8.820312 6.316406 -8.03125 5.859375 -7.242188 C 5.484375 -6.589844 5.113281 -5.933594 4.6875 -5.269531 C 4.472656 -4.933594 4.316406 -4.613281 4.113281 -4.226562 C 3.65625 -3.4375 3.222656 -2.539062 2.488281 -1.976562 C 2.183594 -1.796875 1.988281 -1.640625 1.824219 -1.605469 C 1.550781 -1.542969 1.417969 -1.628906 1.285156 -1.714844 C 1.085938 -1.84375 0.957031 -2.160156 0.960938 -2.675781 C 0.875 -5.40625 1.59375 -8.140625 1.941406 -10.738281 C 2.96875 -18.582031 10.96875 -45.546875 14.253906 -52.511719 C 14.414062 -52.835938 15.097656 -54.417969 15.367188 -55.792969 C 15.621094 -56.996094 15.578125 -57.960938 14.570312 -57.855469 C 13.015625 -57.628906 12.085938 -54.558594 11.578125 -53.472656 C 10.707031 -51.449219 9.914062 -49.324219 9.292969 -47.183594 C 7.988281 -42.945312 0.40625 -19.28125 -0.34375 -14.878906 C -1.089844 -10.703125 -1.917969 -6.394531 -1.101562 -1.878906 C -0.9375 -0.882812 -0.789062 0.0585938 0.40625 0.542969 C 0.835938 0.675781 1.1875 0.714844 1.460938 0.652344 C 2.117188 0.507812 2.566406 -0.046875 2.910156 -0.582031 C 4.03125 -2.257812 5.085938 -3.980469 6.195312 -5.714844 L 7.089844 -7.113281 C 7.429688 -7.648438 7.761719 -8.234375 8.089844 -8.824219 C 8.6875 -9.753906 9.261719 -10.796875 9.921875 -11.6875 L 10.050781 -11.886719 C 10.972656 -13.179688 12.355469 -14.972656 13.445312 -15.210938 C 13.664062 -15.261719 13.894531 -15.253906 14.097656 -15.125 C 14.738281 -14.808594 14.492188 -13.835938 14.414062 -13.417969 L 14.167969 -12.449219 C 13.371094 -9.292969 12.585938 -6.085938 13.285156 -2.628906 C 13.617188 -0.867188 13.996094 0.59375 15.679688 1.484375 C 16.511719 1.875 17.28125 1.992188 18.15625 1.800781 C 18.921875 1.632812 19.636719 1.246094 20.191406 0.894531 C 24.324219 -1.671875 27.769531 -5.808594 30.402344 -11.3125 C 30.476562 -11.5 30.601562 -11.703125 30.71875 -11.957031 C 31.304688 -12.945312 32.335938 -14.773438 31.570312 -15.636719 Z M 31.570312 -15.636719 "/></g></g></g><g fill="#ffffff" fill-opacity="1"><g transform="translate(77.490799, 210.672529)"><g><path d="M 25.753906 -16.824219 C 25.535156 -16.777344 25.269531 -16.429688 25.085938 -16.21875 L 24.945312 -16.074219 C 24.511719 -15.691406 24.214844 -15.226562 23.847656 -14.800781 C 23.679688 -14.535156 23.496094 -14.324219 23.257812 -14.101562 C 22.851562 -13.609375 22.496094 -13.128906 22.089844 -12.640625 C 21.554688 -11.949219 21.019531 -11.257812 20.425781 -10.554688 C 18.632812 -8.558594 16.707031 -6.359375 14.707031 -4.257812 C 14.425781 -3.96875 13.410156 -3.117188 12.644531 -2.949219 C 12.535156 -2.921875 12.425781 -2.898438 12.304688 -2.929688 C 12.128906 -2.949219 12.007812 -2.980469 11.917969 -3.132812 C 11.769531 -3.269531 11.710938 -3.542969 11.738281 -3.953125 L 11.898438 -4.789062 C 11.976562 -5.722656 12.113281 -6.667969 12.316406 -7.574219 L 12.855469 -9.8125 C 13.550781 -12.65625 14.230469 -15.554688 14.859375 -18.441406 C 15.054688 -19.117188 15.109375 -19.644531 14.347656 -19.992188 C 14.078125 -20.164062 13.835938 -20.222656 13.5625 -20.164062 C 13.234375 -20.09375 12.941406 -19.855469 12.652344 -19.621094 C 12.25 -19.359375 11.925781 -19.003906 11.671875 -18.601562 L 11.542969 -18.402344 C 11.203125 -17.871094 10.847656 -17.390625 10.246094 -17.257812 C 9.703125 -17.140625 9.003906 -17.445312 8.089844 -18.21875 C 7.519531 -18.722656 6.589844 -18.519531 5.648438 -18.371094 L 5.429688 -18.320312 C 3.246094 -17.84375 1.6875 -16.582031 0.433594 -14.476562 C -1.257812 -11.46875 -2.117188 -8.070312 -2.234375 -4.4375 L -2.257812 -4.03125 C -2.289062 -2.589844 -2.390625 -0.964844 -0.5625 -0.21875 C -0.121094 -0.03125 0.296875 0.0507812 0.679688 -0.0351562 C 1.5 -0.214844 2.066406 -1.027344 2.601562 -1.71875 L 2.957031 -2.195312 C 4.714844 -4.359375 6.007812 -6.820312 7.3125 -9.226562 C 7.875 -10.320312 8.4375 -11.417969 9.0625 -12.472656 C 9.179688 -12.726562 9.363281 -12.941406 9.480469 -13.195312 L 9.777344 -13.660156 L 9.921875 -13.523438 C 10.523438 -13.136719 10.753906 -13.132812 10.863281 -13.15625 C 11.082031 -13.203125 10.972656 -13.695312 10.902344 -14.023438 L 10.863281 -14.1875 C 10.667969 -15.347656 11.078125 -16.351562 11.492188 -17.074219 C 11.492188 -17.074219 12.320312 -18.515625 13.03125 -18.671875 C 13.140625 -18.695312 13.261719 -18.664062 13.316406 -18.679688 C 13.503906 -18.605469 13.636719 -18.519531 13.726562 -18.367188 C 14.144531 -17.769531 13.730469 -16.535156 13.277344 -15.460938 C 13.203125 -15.273438 13.1875 -15.097656 13.144531 -15.03125 C 12.988281 -14.425781 12.175781 -11.609375 12.175781 -11.609375 C 11.558594 -9.46875 10.984375 -7.109375 10.847656 -4.613281 C 10.828125 -4.4375 10.808594 -4.261719 10.789062 -4.085938 C 10.640625 -3.195312 10.589844 -2.382812 11.753906 -1.777344 C 12.210938 -1.535156 12.628906 -1.453125 13.011719 -1.539062 C 13.503906 -1.644531 13.878906 -2.015625 14.269531 -2.332031 L 14.550781 -2.621094 C 19.3125 -6.761719 23.136719 -11.265625 25.988281 -16.015625 C 26.160156 -16.285156 26.210938 -16.582031 26.117188 -16.734375 C 26.039062 -16.832031 25.929688 -16.804688 25.753906 -16.824219 Z M 9.285156 -15.386719 C 8.410156 -13.878906 7.617188 -12.269531 6.867188 -10.730469 C 5.226562 -7.507812 3.511719 -4.09375 0.761719 -1.484375 C 0.621094 -1.339844 0.46875 -1.25 0.304688 -1.214844 C 0.144531 -1.175781 -0.0351562 -1.195312 -0.222656 -1.269531 C -0.820312 -1.652344 -0.976562 -2.878906 -1.003906 -3.273438 C -0.964844 -4.140625 -0.683594 -4.949219 -0.445312 -5.6875 C -0.355469 -6.050781 -0.25 -6.363281 -0.148438 -6.671875 C 0.71875 -9.78125 1.835938 -13.292969 4.640625 -15.914062 C 5.214844 -16.441406 5.972656 -16.894531 6.8125 -17.25 C 6.910156 -17.328125 6.964844 -17.339844 7.074219 -17.363281 C 7.675781 -17.496094 8.414062 -17.257812 8.972656 -16.808594 C 9.472656 -16.34375 9.582031 -15.851562 9.285156 -15.386719 Z M 9.285156 -15.386719 "/></g></g></g><g fill="#ffffff" fill-opacity="1"><g transform="translate(104.107969, 204.830049)"><g><path d="M 17.125 -12.8125 C 16.347656 -13.214844 12.621094 -7.753906 12.019531 -7.105469 C 10.234375 -5.054688 8.128906 -3.160156 5.484375 -1.890625 C 4.246094 -1.277344 2.617188 -0.34375 1.015625 -1.367188 C -0.515625 -2.351562 0.246094 -3.835938 0.445312 -5.023438 C 1.238281 -9.496094 2.730469 -13.660156 4.277344 -17.839844 C 4.429688 -18.445312 5.007812 -19.203125 3.855469 -19.753906 C 2.757812 -20.3125 2.4375 -19.441406 2.09375 -18.90625 C -0.4375 -14.511719 -1.894531 -9.667969 -2.167969 -4.394531 C -2.25 -2.945312 -1.933594 -1.238281 0.0195312 -0.175781 C 1.914062 0.898438 3.441406 0.277344 4.832031 -0.429688 C 8.136719 -2.074219 10.894531 -4.394531 13.207031 -6.910156 C 14.359375 -8.191406 15.441406 -9.519531 16.457031 -10.886719 C 16.726562 -11.234375 17.503906 -11.863281 17.386719 -12.410156 C 17.335938 -12.628906 17.246094 -12.78125 17.125 -12.8125 Z M 5.632812 -22.890625 C 6.808594 -23.265625 7.535156 -23.882812 7.214844 -25.074219 C 6.636719 -26.148438 5.839844 -26.375 4.988281 -26.074219 C 3.746094 -25.742188 3.15625 -25.039062 3.792969 -23.691406 C 4.273438 -22.824219 4.890625 -22.613281 5.632812 -22.890625 Z M 5.632812 -22.890625 "/></g></g></g><g fill="#ffffff" fill-opacity="1"><g transform="translate(122.144247, 200.871078)"><g><path d="M 16.417969 -13.6875 C 16.351562 -13.730469 16.164062 -13.804688 15.726562 -13.707031 C 14.90625 -13.527344 13.882812 -12.957031 13.472656 -12.753906 C 11.125 -11.4375 8.3125 -9.902344 5.8125 -7.980469 C 5.421875 -7.664062 5.0625 -7.46875 4.679688 -7.386719 C 3.585938 -7.148438 2.757812 -8.054688 1.582031 -9.226562 C 1.058594 -9.800781 0.476562 -10.359375 -0.136719 -10.796875 C -1.226562 -11.589844 -1.484375 -12.507812 -0.984375 -13.363281 C 0.644531 -16.125 3.183594 -18.117188 6.609375 -19.210938 L 6.761719 -19.300781 C 6.871094 -19.324219 6.980469 -19.351562 7.144531 -19.386719 C 7.527344 -19.46875 7.890625 -19.378906 8.183594 -19.097656 C 8.628906 -18.625 8.507812 -18.136719 8.375 -17.707031 C 8.160156 -16.859375 7.890625 -15.996094 7.6875 -15.09375 C 7.507812 -14.597656 7.484375 -14.191406 7.992188 -13.957031 C 8.179688 -13.882812 8.355469 -13.867188 8.519531 -13.902344 C 8.792969 -13.960938 8.976562 -14.171875 9.160156 -14.386719 C 10.085938 -15.390625 10.480469 -16.453125 10.503906 -17.660156 C 10.5625 -18.703125 10.207031 -19.542969 9.515625 -20.078125 C 8.902344 -20.515625 8.078125 -20.621094 7.09375 -20.40625 L 6.820312 -20.347656 C 2.714844 -19.214844 -0.492188 -16.851562 -2.667969 -13.449219 C -3.292969 -12.398438 -3.109375 -11.292969 -2 -10.160156 L -1.417969 -9.601562 C -0.882812 -8.972656 -0.289062 -8.359375 0.359375 -7.757812 C 2.144531 -6.144531 2.234375 -4.960938 0.730469 -3.710938 C -1.632812 -1.703125 -4.007812 0.535156 -5.390625 3.359375 C -6.449219 5.597656 -5.957031 7.839844 -4.257812 8.785156 C -3.617188 9.101562 -2.847656 9.21875 -2.136719 9.0625 C -1.042969 8.824219 -0.00390625 8.078125 0.832031 6.921875 C 3.046875 3.972656 4.082031 1.109375 3.972656 -1.730469 C 3.859375 -4.859375 5.617188 -6.503906 7.566406 -8.078125 C 8.84375 -9.046875 10.285156 -10.046875 12.121094 -11.082031 C 13.03125 -11.625 14.007812 -12.128906 14.945312 -12.5625 C 15.042969 -12.640625 15.207031 -12.675781 15.359375 -12.765625 C 15.785156 -12.917969 16.6875 -13.230469 16.574219 -13.492188 Z M -0.929688 7.25 C -1.222656 7.488281 -1.675781 7.757812 -2.277344 7.890625 C -2.769531 8 -3.1875 7.917969 -3.523438 7.707031 C -3.800781 7.480469 -3.992188 7.121094 -4.101562 6.628906 C -4.261719 5.117188 -2.988281 3.347656 -2.003906 2.101562 L -1.691406 1.6875 C -1.179688 0.890625 -0.535156 0.175781 0.195312 -0.671875 C 0.347656 -0.765625 0.53125 -0.976562 0.835938 -1.15625 C 1.265625 -1.539062 2.140625 -2.246094 2.136719 -2.53125 L 2.542969 -2.507812 C 2.769531 1.914062 1.675781 5.019531 -0.929688 7.25 Z M -0.929688 7.25 "/></g></g></g><g fill="#ffffff" fill-opacity="1"><g transform="translate(139.251389, 197.116052)"><g><path d="M 16.875 -12.125 C 16.691406 -11.914062 16.519531 -11.648438 16.351562 -11.378906 C 16.210938 -11.234375 16.136719 -11.046875 15.996094 -10.902344 C 15.289062 -9.945312 14.601562 -9.164062 13.859375 -8.371094 C 12.234375 -6.640625 10.515625 -5.34375 8.722656 -4.378906 C 7.546875 -3.71875 6.558594 -3.273438 5.355469 -3.007812 C 4.644531 -2.851562 3.976562 -2.761719 3.21875 -2.824219 C 2.296875 -2.851562 1.597656 -3.15625 1.097656 -3.621094 C 0.671875 -3.984375 0.453125 -4.453125 0.457031 -4.96875 L 0.480469 -5.375 C 0.4375 -7.144531 0.425781 -9.03125 2.800781 -9.953125 C 6.082031 -11.1875 8.136719 -12.785156 9.257812 -14.980469 C 9.734375 -15.945312 10.058594 -16.816406 8.988281 -17.785156 C 8.273438 -18.429688 7.421875 -18.644531 6.546875 -18.453125 C 6.273438 -18.394531 6 -18.332031 5.699219 -18.152344 C 0.597656 -15.542969 -1.960938 -11.542969 -1.863281 -6.410156 C -1.867188 -4.859375 -1.242188 -3.566406 -0.0820312 -2.730469 C 1.128906 -1.910156 2.734375 -1.632812 4.550781 -1.972656 L 4.824219 -2.03125 C 10.453125 -3.269531 13.761719 -7.261719 16.925781 -11.105469 L 17.25 -11.464844 C 17.472656 -11.742188 17.882812 -12.230469 17.6875 -12.589844 C 17.414062 -12.53125 17.113281 -12.351562 16.875 -12.125 Z M 2.980469 -11.996094 C 4.1875 -14.324219 5.746094 -15.582031 7.789062 -16.71875 L 8.242188 -16.992188 L 8.066406 -16.496094 C 7.222656 -14.074219 5.695312 -12.9375 3.257812 -11.773438 L 2.738281 -11.542969 Z M 2.980469 -11.996094 "/></g></g></g><g fill="#ffffff" fill-opacity="1"><g transform="translate(157.888876, 193.025116)"><g/></g></g><g fill="#ffffff" fill-opacity="1"><g transform="translate(174.285495, 189.426051)"><g><path d="M 25.730469 7.070312 C 26.277344 6.949219 26.765625 6.84375 27.300781 6.667969 C 32.683594 5.085938 37.242188 2.367188 40.9375 -1.421875 C 43.230469 -3.761719 45.242188 -6.609375 47.023438 -9.976562 C 47.710938 -11.273438 48.359375 -12.503906 48.980469 -13.84375 L 49.253906 -14.421875 C 49.816406 -15.519531 50.367188 -16.667969 50.738281 -17.839844 L 50.8125 -18.027344 C 50.90625 -18.390625 51.070312 -18.945312 50.957031 -19.207031 C 50.773438 -19.507812 50.609375 -19.472656 50.609375 -19.472656 C 50.5 -19.449219 50.402344 -19.371094 50.316406 -19.238281 C 50.136719 -19.027344 50.019531 -18.769531 49.914062 -18.460938 L 49.714844 -18.074219 C 49.300781 -17.351562 48.953125 -16.589844 48.605469 -15.824219 C 47.058594 -12.164062 45.371094 -9.15625 43.519531 -6.628906 C 40.058594 -2.03125 35.011719 3.429688 26.429688 5.3125 C 25.558594 5.503906 24.628906 5.707031 23.675781 5.804688 C 18.035156 6.46875 12.195312 4.140625 8.457031 -0.367188 C 3.113281 -6.699219 2.609375 -13.175781 2.824219 -18.722656 C 3.160156 -27.621094 5.976562 -36.203125 11.636719 -45.636719 C 14.203125 -49.867188 16.886719 -53.835938 21.546875 -56.347656 C 22.210938 -56.722656 22.910156 -56.933594 23.621094 -57.089844 C 25.203125 -57.4375 26.855469 -57.226562 28.339844 -56.464844 C 30.011719 -55.628906 31.445312 -54.054688 32.351562 -52.015625 C 33.703125 -48.992188 33.425781 -46.351562 33.011719 -44.3125 C 31.882812 -39.023438 29.464844 -34.367188 25.574219 -29.90625 C 25.492188 -29.773438 25.351562 -29.625 25.210938 -29.480469 C 24.734375 -29.035156 24.21875 -28.519531 24.382812 -28.039062 C 24.441406 -27.765625 24.730469 -27.484375 25.199219 -27.1875 C 25.597656 -26.929688 25.972656 -26.785156 26.300781 -26.855469 C 26.847656 -26.976562 27.222656 -27.632812 27.507812 -28.152344 C 27.582031 -28.339844 27.667969 -28.472656 27.75 -28.605469 C 29.925781 -32.007812 31.722656 -35.835938 33.074219 -39.859375 C 34.460938 -44.230469 34.601562 -48.042969 33.40625 -51.90625 C 32.777344 -54 31.347656 -55.808594 29.371094 -56.976562 C 27.332031 -58.191406 24.996094 -58.652344 22.675781 -58.257812 L 22.238281 -58.160156 C 19.503906 -57.5625 17.183594 -56.136719 14.835938 -53.785156 C 6.769531 -45.371094 1.839844 -34.949219 0.210938 -22.789062 C -0.59375 -17.058594 -0.0234375 -11.855469 1.910156 -6.949219 C 4.089844 -1.46875 7.738281 2.886719 12.28125 5.324219 C 16.375 7.519531 21.027344 8.101562 25.730469 7.070312 Z M 25.730469 7.070312 "/></g></g></g><g fill="#ffffff" fill-opacity="1"><g transform="translate(225.770878, 178.124987)"><g><path d="M 21.972656 -13.703125 C 21.808594 -13.667969 21.667969 -13.519531 21.460938 -13.417969 C 21.363281 -13.339844 21.210938 -13.25 21.113281 -13.171875 C 20.796875 -13.042969 20.480469 -12.917969 20.152344 -12.84375 C 18.132812 -12.402344 15.75 -13.082031 13.808594 -14.605469 C 12.070312 -16 11.015625 -16.625 10.140625 -16.433594 C 9.597656 -16.3125 9.011719 -15.84375 8.140625 -14.847656 C 6.863281 -13.367188 5.707031 -11.851562 4.507812 -10.269531 L 2.628906 -7.851562 C 2.503906 -7.652344 2.375 -7.453125 2.203125 -7.1875 C 1.863281 -6.652344 1.53125 -6.066406 0.859375 -5.746094 L 0.695312 -5.710938 L 0.617188 -5.808594 C 0.269531 -6.074219 0.664062 -7.9375 0.664062 -7.9375 C 0.890625 -8.730469 1.0625 -9.515625 1.234375 -10.296875 C 1.488281 -11.496094 1.671875 -12.742188 1.910156 -13.996094 L 2.066406 -15.121094 C 2.097656 -15.242188 2.171875 -15.429688 2.199219 -15.550781 C 2.28125 -15.96875 2.46875 -16.410156 2.222656 -16.757812 C 2.066406 -16.953125 1.863281 -17.082031 1.554688 -17.183594 C 1.367188 -17.257812 1.191406 -17.277344 1.027344 -17.242188 C 0.589844 -17.144531 0.382812 -16.527344 0.195312 -16.082031 L 0.175781 -15.90625 C -1.230469 -11.875 -2.105469 -7.5 -2.5625 -2.53125 L -2.566406 -2.300781 C -2.652344 -1.652344 -2.730469 -0.949219 -1.777344 -0.527344 C -1.457031 -0.367188 -1.160156 -0.320312 -0.941406 -0.367188 C -0.558594 -0.449219 -0.410156 -0.828125 -0.265625 -1.203125 C -0.179688 -1.335938 -0.09375 -1.46875 -0.0078125 -1.601562 L 1.003906 -3.257812 C 3.242188 -6.898438 5.574219 -10.621094 8.480469 -13.835938 C 9.304688 -14.761719 9.769531 -15.265625 10.371094 -15.394531 C 11.136719 -15.5625 11.878906 -15.039062 13.527344 -13.796875 C 15.507812 -12.339844 18.113281 -11.710938 20.1875 -12.164062 C 21.007812 -12.34375 21.738281 -12.675781 22.253906 -13.191406 C 22.449219 -13.347656 22.46875 -13.527344 22.402344 -13.566406 C 22.390625 -13.621094 22.257812 -13.707031 21.972656 -13.703125 Z M 21.972656 -13.703125 "/></g></g></g><g fill="#ffffff" fill-opacity="1"><g transform="translate(248.890103, 173.050307)"><g><path d="M 17.125 -12.8125 C 16.347656 -13.214844 12.621094 -7.753906 12.019531 -7.105469 C 10.234375 -5.054688 8.128906 -3.160156 5.484375 -1.890625 C 4.246094 -1.277344 2.617188 -0.34375 1.015625 -1.367188 C -0.515625 -2.351562 0.246094 -3.835938 0.445312 -5.023438 C 1.238281 -9.496094 2.730469 -13.660156 4.277344 -17.839844 C 4.429688 -18.445312 5.007812 -19.203125 3.855469 -19.753906 C 2.757812 -20.3125 2.4375 -19.441406 2.09375 -18.90625 C -0.4375 -14.511719 -1.894531 -9.667969 -2.167969 -4.394531 C -2.25 -2.945312 -1.933594 -1.238281 0.0195312 -0.175781 C 1.914062 0.898438 3.441406 0.277344 4.832031 -0.429688 C 8.136719 -2.074219 10.894531 -4.394531 13.207031 -6.910156 C 14.359375 -8.191406 15.441406 -9.519531 16.457031 -10.886719 C 16.726562 -11.234375 17.503906 -11.863281 17.386719 -12.410156 C 17.335938 -12.628906 17.246094 -12.78125 17.125 -12.8125 Z M 5.632812 -22.890625 C 6.808594 -23.265625 7.535156 -23.882812 7.214844 -25.074219 C 6.636719 -26.148438 5.839844 -26.375 4.988281 -26.074219 C 3.746094 -25.742188 3.15625 -25.039062 3.792969 -23.691406 C 4.273438 -22.824219 4.890625 -22.613281 5.632812 -22.890625 Z M 5.632812 -22.890625 "/></g></g></g><g fill="#ffffff" fill-opacity="1"><g transform="translate(266.926381, 169.091336)"><g><path d="M 16.417969 -13.6875 C 16.351562 -13.730469 16.164062 -13.804688 15.726562 -13.707031 C 14.90625 -13.527344 13.882812 -12.957031 13.472656 -12.753906 C 11.125 -11.4375 8.3125 -9.902344 5.8125 -7.980469 C 5.421875 -7.664062 5.0625 -7.46875 4.679688 -7.386719 C 3.585938 -7.148438 2.757812 -8.054688 1.582031 -9.226562 C 1.058594 -9.800781 0.476562 -10.359375 -0.136719 -10.796875 C -1.226562 -11.589844 -1.484375 -12.507812 -0.984375 -13.363281 C 0.644531 -16.125 3.183594 -18.117188 6.609375 -19.210938 L 6.761719 -19.300781 C 6.871094 -19.324219 6.980469 -19.351562 7.144531 -19.386719 C 7.527344 -19.46875 7.890625 -19.378906 8.183594 -19.097656 C 8.628906 -18.625 8.507812 -18.136719 8.375 -17.707031 C 8.160156 -16.859375 7.890625 -15.996094 7.6875 -15.09375 C 7.507812 -14.597656 7.484375 -14.191406 7.992188 -13.957031 C 8.179688 -13.882812 8.355469 -13.867188 8.519531 -13.902344 C 8.792969 -13.960938 8.976562 -14.171875 9.160156 -14.386719 C 10.085938 -15.390625 10.480469 -16.453125 10.503906 -17.660156 C 10.5625 -18.703125 10.207031 -19.542969 9.515625 -20.078125 C 8.902344 -20.515625 8.078125 -20.621094 7.09375 -20.40625 L 6.820312 -20.347656 C 2.714844 -19.214844 -0.492188 -16.851562 -2.667969 -13.449219 C -3.292969 -12.398438 -3.109375 -11.292969 -2 -10.160156 L -1.417969 -9.601562 C -0.882812 -8.972656 -0.289062 -8.359375 0.359375 -7.757812 C 2.144531 -6.144531 2.234375 -4.960938 0.730469 -3.710938 C -1.632812 -1.703125 -4.007812 0.535156 -5.390625 3.359375 C -6.449219 5.597656 -5.957031 7.839844 -4.257812 8.785156 C -3.617188 9.101562 -2.847656 9.21875 -2.136719 9.0625 C -1.042969 8.824219 -0.00390625 8.078125 0.832031 6.921875 C 3.046875 3.972656 4.082031 1.109375 3.972656 -1.730469 C 3.859375 -4.859375 5.617188 -6.503906 7.566406 -8.078125 C 8.84375 -9.046875 10.285156 -10.046875 12.121094 -11.082031 C 13.03125 -11.625 14.007812 -12.128906 14.945312 -12.5625 C 15.042969 -12.640625 15.207031 -12.675781 15.359375 -12.765625 C 15.785156 -12.917969 16.6875 -13.230469 16.574219 -13.492188 Z M -0.929688 7.25 C -1.222656 7.488281 -1.675781 7.757812 -2.277344 7.890625 C -2.769531 8 -3.1875 7.917969 -3.523438 7.707031 C -3.800781 7.480469 -3.992188 7.121094 -4.101562 6.628906 C -4.261719 5.117188 -2.988281 3.347656 -2.003906 2.101562 L -1.691406 1.6875 C -1.179688 0.890625 -0.535156 0.175781 0.195312 -0.671875 C 0.347656 -0.765625 0.53125 -0.976562 0.835938 -1.15625 C 1.265625 -1.539062 2.140625 -2.246094 2.136719 -2.53125 L 2.542969 -2.507812 C 2.769531 1.914062 1.675781 5.019531 -0.929688 7.25 Z M -0.929688 7.25 "/></g></g></g><g fill="#ffffff" fill-opacity="1"><g transform="translate(284.033523, 165.33631)"><g><path d="M 25.59375 -33.746094 C 25.324219 -33.917969 24.886719 -33.820312 24.449219 -33.726562 C 24.328125 -33.757812 24.164062 -33.71875 24.054688 -33.695312 C 19.015625 -33.164062 14.695312 -32.5 10.757812 -31.636719 L 5.949219 -30.582031 L 5.996094 -30.878906 C 6.742188 -34.019531 7.929688 -36.6875 9.035156 -39.222656 C 9.425781 -40.054688 9.761719 -40.871094 10.140625 -41.757812 C 10.476562 -42.574219 10.644531 -43.128906 9.800781 -43.574219 C 9.535156 -43.742188 9.289062 -43.804688 9.070312 -43.757812 C 8.746094 -43.683594 8.597656 -43.308594 8.382812 -42.976562 C 8.355469 -42.855469 8.324219 -42.734375 8.226562 -42.652344 C 6.195312 -39.113281 4.777344 -35.652344 3.902344 -32.078125 C 3.527344 -30.394531 2.394531 -29.800781 0.824219 -29.398438 C -0.761719 -29.050781 -2.335938 -28.648438 -3.921875 -28.300781 C -5.613281 -27.929688 -7.320312 -27.613281 -9.015625 -27.238281 C -10.710938 -26.867188 -12.417969 -26.550781 -14.109375 -26.179688 C -17.28125 -25.484375 -21.421875 -24.515625 -25.4375 -23.234375 L -25.601562 -23.199219 C -25.601562 -23.199219 -26.203125 -23.066406 -26.3125 -23.042969 C -26.804688 -22.933594 -26.890625 -22.800781 -26.75 -22.429688 C -26.59375 -22.234375 -26.503906 -22.082031 -26.304688 -21.957031 C -26.117188 -21.882812 -25.882812 -21.875 -25.664062 -21.921875 C -25.394531 -21.984375 -25.132812 -22.097656 -24.871094 -22.210938 C -22.859375 -23.226562 -20.519531 -23.796875 -18.277344 -24.289062 C -17.40625 -24.480469 -16.476562 -24.683594 -15.613281 -24.933594 C -13.558594 -25.496094 -11.265625 -26 -8.476562 -26.613281 C -6.78125 -26.984375 -5.089844 -27.355469 -3.339844 -27.742188 C -1.699219 -28.101562 0.0078125 -28.417969 1.648438 -28.777344 L 1.757812 -28.800781 L 1.835938 -28.703125 C 2.707031 -27.863281 2.570312 -27.433594 2.492188 -27.015625 C 2.15625 -25.679688 1.828125 -24.292969 1.503906 -22.902344 C 0.757812 -20.046875 0.03125 -17.078125 -0.515625 -14.09375 L -0.632812 -13.324219 C -2.285156 -4.140625 -3.929688 5.332031 -2.644531 15.363281 L -2.589844 15.867188 C -2.386719 17.308594 -2.214844 18.875 -1.375 20.355469 C -0.546875 21.777344 0.589844 22.269531 2.175781 21.921875 L 2.230469 21.910156 C 2.558594 21.839844 2.917969 21.644531 2.6875 21.125 C 2.640625 20.90625 2.496094 20.765625 2.351562 20.625 C 2.230469 20.59375 2.105469 20.5625 1.984375 20.53125 C 1.261719 20.632812 0.777344 20.511719 0.378906 20.253906 C -0.167969 19.859375 -0.300781 19.257812 -0.429688 18.65625 C -0.464844 18.492188 -0.492188 18.382812 -0.527344 18.21875 C -1.359375 14.679688 -1.671875 10.910156 -1.558594 6.472656 C -1.175781 -4.839844 1.65625 -15.429688 4.382812 -25.710938 L 4.902344 -27.773438 C 5.191406 -28.8125 5.921875 -29.144531 7.070312 -29.394531 L 7.125 -29.40625 C 8.050781 -29.609375 9.035156 -29.828125 9.964844 -30.03125 L 12.753906 -30.644531 C 16.414062 -31.445312 20.363281 -32.253906 24.527344 -32.597656 L 24.746094 -32.644531 C 24.976562 -32.636719 25.261719 -32.644531 25.480469 -32.691406 C 26.027344 -32.8125 26.035156 -33.042969 25.929688 -33.25 C 25.882812 -33.46875 25.78125 -33.675781 25.59375 -33.746094 Z M 25.59375 -33.746094 "/></g></g></g><g fill="#ffffff" fill-opacity="1"><g transform="translate(293.434252, 163.272846)"><g><path d="M 17.125 -12.8125 C 16.347656 -13.214844 12.621094 -7.753906 12.019531 -7.105469 C 10.234375 -5.054688 8.128906 -3.160156 5.484375 -1.890625 C 4.246094 -1.277344 2.617188 -0.34375 1.015625 -1.367188 C -0.515625 -2.351562 0.246094 -3.835938 0.445312 -5.023438 C 1.238281 -9.496094 2.730469 -13.660156 4.277344 -17.839844 C 4.429688 -18.445312 5.007812 -19.203125 3.855469 -19.753906 C 2.757812 -20.3125 2.4375 -19.441406 2.09375 -18.90625 C -0.4375 -14.511719 -1.894531 -9.667969 -2.167969 -4.394531 C -2.25 -2.945312 -1.933594 -1.238281 0.0195312 -0.175781 C 1.914062 0.898438 3.441406 0.277344 4.832031 -0.429688 C 8.136719 -2.074219 10.894531 -4.394531 13.207031 -6.910156 C 14.359375 -8.191406 15.441406 -9.519531 16.457031 -10.886719 C 16.726562 -11.234375 17.503906 -11.863281 17.386719 -12.410156 C 17.335938 -12.628906 17.246094 -12.78125 17.125 -12.8125 Z M 5.632812 -22.890625 C 6.808594 -23.265625 7.535156 -23.882812 7.214844 -25.074219 C 6.636719 -26.148438 5.839844 -26.375 4.988281 -26.074219 C 3.746094 -25.742188 3.15625 -25.039062 3.792969 -23.691406 C 4.273438 -22.824219 4.890625 -22.613281 5.632812 -22.890625 Z M 5.632812 -22.890625 "/></g></g></g><g fill="#ffffff" fill-opacity="1"><g transform="translate(311.470546, 159.313872)"><g><path d="M 28.058594 -15.726562 C 27.925781 -15.8125 27.871094 -15.800781 27.761719 -15.777344 C 27.433594 -15.703125 27.265625 -15.152344 27.175781 -14.789062 L 27.15625 -14.613281 C 26.355469 -11.742188 24.679688 -9.199219 23.355469 -7.132812 C 21.777344 -4.664062 19.796875 -1.9375 16.636719 -0.15625 C 16.386719 0.0117188 16.082031 0.195312 15.8125 0.253906 C 15.429688 0.335938 15.0625 0.246094 14.730469 0.03125 C 14.132812 -0.351562 14.230469 -0.945312 14.308594 -1.363281 L 14.371094 -1.609375 C 14.445312 -2.3125 14.574219 -3.027344 14.714844 -3.6875 C 14.957031 -4.945312 15.183594 -6.253906 15.234375 -7.582031 C 15.292969 -8.628906 14.882812 -9.453125 14.191406 -9.988281 C 13.515625 -10.472656 12.675781 -10.632812 11.691406 -10.414062 C 11.527344 -10.378906 11.308594 -10.332031 11.15625 -10.242188 C 9.828125 -9.777344 8.546875 -9.09375 7.214844 -8.113281 C 6.0625 -7.347656 4.96875 -6.589844 3.941406 -5.792969 C 3.609375 -5.488281 3.328125 -5.199219 2.992188 -4.894531 C 2.765625 -4.617188 2.542969 -4.339844 2.25 -4.101562 C 2 -3.933594 1.40625 -3.515625 0.914062 -3.410156 C 0.695312 -3.359375 0.519531 -3.378906 0.386719 -3.464844 C -0.00390625 -3.667969 0.078125 -4.085938 0.109375 -4.207031 L 0.929688 -9.601562 C 0.960938 -9.722656 0.980469 -9.898438 1.050781 -10.085938 C 1.179688 -10.800781 1.476562 -12.070312 0.992188 -12.707031 C 0.835938 -12.902344 0.648438 -12.976562 0.390625 -13.089844 C 0.214844 -13.109375 0.105469 -13.085938 -0.00390625 -13.0625 C -0.277344 -13 -0.433594 -12.679688 -0.539062 -12.371094 L -0.613281 -12.183594 C -1.625 -9.496094 -2.1875 -6.566406 -2.128906 -3.429688 L -2.132812 -3.199219 C -2.152344 -2.507812 -2.1875 -1.867188 -1.277344 -1.382812 C -0.824219 -1.136719 -0.457031 -1.046875 -0.128906 -1.117188 C 0.253906 -1.199219 0.585938 -1.503906 0.878906 -1.738281 L 1.019531 -1.886719 C 1.699219 -2.4375 2.328125 -2.972656 2.941406 -3.566406 C 4.332031 -4.789062 5.824219 -6.089844 7.539062 -7.15625 C 8.851562 -7.957031 10.1875 -8.652344 11.539062 -9.292969 C 11.746094 -9.394531 11.910156 -9.429688 12.019531 -9.457031 C 12.457031 -9.550781 12.808594 -9.515625 13.152344 -9.246094 C 13.753906 -8.863281 13.628906 -8.378906 13.582031 -8.078125 L 13.507812 -7.890625 C 13.449219 -7.363281 13.261719 -6.921875 13.085938 -6.425781 L 12.785156 -5.441406 C 12.296875 -4.015625 11.816406 -2.535156 12.191406 -0.84375 C 12.394531 0.0859375 12.769531 0.75 13.367188 1.132812 C 13.957031 1.460938 14.726562 1.578125 15.65625 1.375 L 15.765625 1.351562 C 16.683594 1.09375 17.3125 0.839844 17.832031 0.324219 C 22.765625 -4.082031 26.132812 -8.832031 28.121094 -14.136719 C 28.152344 -14.257812 28.238281 -14.390625 28.320312 -14.523438 C 28.480469 -14.84375 28.707031 -15.125 28.535156 -15.371094 C 28.5 -15.535156 28.3125 -15.609375 28.058594 -15.726562 Z M 28.058594 -15.726562 "/></g></g></g><g fill="#ffffff" fill-opacity="1"><g transform="translate(340.383225, 152.967526)"><g><path d="M 25.753906 -16.824219 C 25.535156 -16.777344 25.269531 -16.429688 25.085938 -16.21875 L 24.945312 -16.074219 C 24.511719 -15.691406 24.214844 -15.226562 23.847656 -14.800781 C 23.679688 -14.535156 23.496094 -14.324219 23.257812 -14.101562 C 22.851562 -13.609375 22.496094 -13.128906 22.089844 -12.640625 C 21.554688 -11.949219 21.019531 -11.257812 20.425781 -10.554688 C 18.632812 -8.558594 16.707031 -6.359375 14.707031 -4.257812 C 14.425781 -3.96875 13.410156 -3.117188 12.644531 -2.949219 C 12.535156 -2.921875 12.425781 -2.898438 12.304688 -2.929688 C 12.128906 -2.949219 12.007812 -2.980469 11.917969 -3.132812 C 11.769531 -3.269531 11.710938 -3.542969 11.738281 -3.953125 L 11.898438 -4.789062 C 11.976562 -5.722656 12.113281 -6.667969 12.316406 -7.574219 L 12.855469 -9.8125 C 13.550781 -12.65625 14.230469 -15.554688 14.859375 -18.441406 C 15.054688 -19.117188 15.109375 -19.644531 14.347656 -19.992188 C 14.078125 -20.164062 13.835938 -20.222656 13.5625 -20.164062 C 13.234375 -20.09375 12.941406 -19.855469 12.652344 -19.621094 C 12.25 -19.359375 11.925781 -19.003906 11.671875 -18.601562 L 11.542969 -18.402344 C 11.203125 -17.871094 10.847656 -17.390625 10.246094 -17.257812 C 9.703125 -17.140625 9.003906 -17.445312 8.089844 -18.21875 C 7.519531 -18.722656 6.589844 -18.519531 5.648438 -18.371094 L 5.429688 -18.320312 C 3.246094 -17.84375 1.6875 -16.582031 0.433594 -14.476562 C -1.257812 -11.46875 -2.117188 -8.070312 -2.234375 -4.4375 L -2.257812 -4.03125 C -2.289062 -2.589844 -2.390625 -0.964844 -0.5625 -0.21875 C -0.121094 -0.03125 0.296875 0.0507812 0.679688 -0.0351562 C 1.5 -0.214844 2.066406 -1.027344 2.601562 -1.71875 L 2.957031 -2.195312 C 4.714844 -4.359375 6.007812 -6.820312 7.3125 -9.226562 C 7.875 -10.320312 8.4375 -11.417969 9.0625 -12.472656 C 9.179688 -12.726562 9.363281 -12.941406 9.480469 -13.195312 L 9.777344 -13.660156 L 9.921875 -13.523438 C 10.523438 -13.136719 10.753906 -13.132812 10.863281 -13.15625 C 11.082031 -13.203125 10.972656 -13.695312 10.902344 -14.023438 L 10.863281 -14.1875 C 10.667969 -15.347656 11.078125 -16.351562 11.492188 -17.074219 C 11.492188 -17.074219 12.320312 -18.515625 13.03125 -18.671875 C 13.140625 -18.695312 13.261719 -18.664062 13.316406 -18.679688 C 13.503906 -18.605469 13.636719 -18.519531 13.726562 -18.367188 C 14.144531 -17.769531 13.730469 -16.535156 13.277344 -15.460938 C 13.203125 -15.273438 13.1875 -15.097656 13.144531 -15.03125 C 12.988281 -14.425781 12.175781 -11.609375 12.175781 -11.609375 C 11.558594 -9.46875 10.984375 -7.109375 10.847656 -4.613281 C 10.828125 -4.4375 10.808594 -4.261719 10.789062 -4.085938 C 10.640625 -3.195312 10.589844 -2.382812 11.753906 -1.777344 C 12.210938 -1.535156 12.628906 -1.453125 13.011719 -1.539062 C 13.503906 -1.644531 13.878906 -2.015625 14.269531 -2.332031 L 14.550781 -2.621094 C 19.3125 -6.761719 23.136719 -11.265625 25.988281 -16.015625 C 26.160156 -16.285156 26.210938 -16.582031 26.117188 -16.734375 C 26.039062 -16.832031 25.929688 -16.804688 25.753906 -16.824219 Z M 9.285156 -15.386719 C 8.410156 -13.878906 7.617188 -12.269531 6.867188 -10.730469 C 5.226562 -7.507812 3.511719 -4.09375 0.761719 -1.484375 C 0.621094 -1.339844 0.46875 -1.25 0.304688 -1.214844 C 0.144531 -1.175781 -0.0351562 -1.195312 -0.222656 -1.269531 C -0.820312 -1.652344 -0.976562 -2.878906 -1.003906 -3.273438 C -0.964844 -4.140625 -0.683594 -4.949219 -0.445312 -5.6875 C -0.355469 -6.050781 -0.25 -6.363281 -0.148438 -6.671875 C 0.71875 -9.78125 1.835938 -13.292969 4.640625 -15.914062 C 5.214844 -16.441406 5.972656 -16.894531 6.8125 -17.25 C 6.910156 -17.328125 6.964844 -17.339844 7.074219 -17.363281 C 7.675781 -17.496094 8.414062 -17.257812 8.972656 -16.808594 C 9.472656 -16.34375 9.582031 -15.851562 9.285156 -15.386719 Z M 9.285156 -15.386719 "/></g></g></g></svg>